<svg xmlns="http://www.w3.org/2000/svg" viewBox="0 0 265 100">
  <g transform="translate(-350 -200)">
    <mask id="a">
      <path fill="#FFF" d="M350 200h265v100H350V200z"/>
    </mask>
    <g mask="url(#a)">
      <path fill="#101010" d="M350 200h265v100H350V200z"/>
      <g fill="#FEFEFE">
        <use href="#b" transform="translate(543 257)"/>
        <use href="#c" transform="translate(375 216)"/>
      </g>
    </g>
  </g>
  <defs>
    <path id="b" d="M1.387 22.032v1.608c0 .24.12.36.36.36h1.536c.24 0 .36-.12.36-.36v-1.608c0-.24-.12-.36-.36-.36H1.747c-.24 0-.36.12-.36.36zm12.217-6.312h.84c.24 0 .36-.144.336-.408-.36-2.112-1.896-3.384-4.008-3.384h-.888c-2.568 0-4.32 1.584-4.32 4.344V19.8c0 2.64 1.752 4.32 4.32 4.32h.864c2.208 0 2.976-1.008 3.84-2.064.144-.192.144-.36-.072-.504l-.528-.384c-.216-.144-.36-.144-.528.048-.696.84-1.152 1.464-2.712 1.464h-.864c-1.752 0-2.736-.984-2.736-2.712v-3.744c0-1.92.984-2.856 2.736-2.856h.888c1.296 0 2.184.624 2.448 1.992.048.24.168.36.384.36zm8.586-3.816h-1.08c-2.568 0-4.272 1.584-4.272 4.368v3.456c0 2.736 1.704 4.392 4.272 4.392h1.08c2.544 0 4.248-1.656 4.248-4.392v-3.456c0-2.784-1.704-4.368-4.248-4.368zm2.712 7.968c0 1.824-.984 2.808-2.712 2.808h-1.08c-1.752 0-2.736-.984-2.736-2.808v-3.648c0-1.944.984-2.88 2.736-2.88h1.08c1.728 0 2.712.936 2.712 2.88v3.648zm16.925-7.968h-.192c-1.512 0-2.784.672-3.6 1.896l-.24.36c-.432-1.464-1.488-2.256-3.504-2.256H34.1c-1.512 0-2.784.672-3.6 1.896v-1.44c0-.24-.12-.36-.36-.36h-.816c-.24 0-.36.12-.36.36v11.28c0 .24.12.36.36.36h.816c.24 0 .36-.12.36-.36v-8.592c.36-.624 1.416-1.704 3.24-1.704h.384c1.896 0 2.376.936 2.376 2.808v7.488c0 .24.12.36.36.36h.816c.24 0 .36-.12.36-.36v-8.592c.36-.624 1.416-1.704 3.24-1.704h.384c1.872 0 2.376.936 2.376 2.808v7.488c0 .24.12.36.36.36h.816c.24 0 .36-.12.36-.36v-7.488c0-2.736-.96-4.248-3.744-4.248z"/>
    <path id="c" d="M25.035 47.232 19.37 35.04c3.168-1.2 5.04-4.08 5.04-8.88V24c0-6.672-3.6-9.6-9.312-9.6H4.059c-.48 0-.72.24-.72.72v32.16c0 .48.24.72.72.72h.288c.48 0 .72-.24.72-.72V35.76h10.032c.96 0 1.872-.096 2.688-.288l5.52 12.096c.144.336.384.432.672.432h.624c.432 0 .624-.288.432-.768zM5.067 34.08v-18h10.032c5.28 0 7.584 2.4 7.584 7.92v2.16c0 5.52-2.304 7.92-7.584 7.92H5.067zm44.14-19.68h-.433c-.48 0-.72.24-.96.72l-9.648 17.232-9.6-17.232c-.24-.48-.48-.72-.96-.72h-.48c-.48 0-.768.24-.48.72l10.656 18.912V47.28c0 .48.24.72.72.72h.288c.48 0 .72-.24.72-.72V34.032L49.686 15.12c.336-.48 0-.72-.48-.72zm22.369 32.88-10.32-32.112c-.144-.48-.48-.768-.912-.768h-.576c-.432 0-.768.288-.912.768L48.536 47.28c-.144.528.096.72.576.72h.432c.48 0 .672-.192.816-.72l2.592-8.16H67.16l2.592 8.16c.192.528.336.72.816.72H71c.48 0 .768-.192.576-.72zm-18.144-9.744 6.624-21.072 6.624 21.072H53.432zM96.677 14.4h-.288c-.48 0-.72.24-.72.72v32.256L79.685 14.928c-.192-.384-.48-.528-.864-.528H76.95c-.48 0-.72.24-.72.72v32.16c0 .48.24.72.72.72h.288c.48 0 .72-.24.72-.72V15.024l15.984 32.448c.192.384.48.528.864.528h1.872c.48 0 .72-.24.72-.72V15.12c0-.48-.24-.72-.72-.72zm59.141 0h-.336c-.48 0-.768.24-.912.72l-7.68 30.768-9.12-30.768c-.144-.48-.432-.72-.912-.72h-.672c-.48 0-.768.24-.912.72l-9.12 30.768-7.728-30.768c-.096-.48-.384-.72-.864-.72h-.336c-.48 0-.672.24-.576.72l8.208 32.16c.144.528.528.72.96.72h.72c.432 0 .768-.192.912-.72l9.072-30.384 9.072 30.384c.144.528.48.72.912.72h.672c.432 0 .864-.192 1.008-.72l8.208-32.16c.096-.48-.096-.72-.576-.72zm5.443.72v32.16c0 .48.24.72.72.72h.24c.48 0 .72-.24.72-.72V15.12c0-.48-.24-.72-.72-.72h-.24c-.48 0-.72.24-.72.72zm24.524 31.2h-14.64v-31.2c0-.48-.24-.72-.72-.72h-.288c-.48 0-.72.24-.72.72v32.16c0 .48.24.72.72.72h15.648c.48 0 .72-.24.72-.72v-.24c0-.48-.24-.72-.72-.72zm17.757-31.92h-11.28c-.48 0-.72.24-.72.72v32.16c0 .48.24.72.72.72h11.28c5.712 0 9.312-2.88 9.312-9.6V24c0-6.672-3.6-9.6-9.312-9.6zm7.584 24c0 5.52-2.304 7.92-7.584 7.92H193.27V16.08h10.272c5.28 0 7.584 2.4 7.584 7.92v14.4z"/>
  </defs>
</svg>
